<svg width="24" height="24" viewBox="0 0 24 24" fill="none" xmlns="http://www.w3.org/2000/svg">
<g id="volume_up">
<mask id="mask0_5_121" style="mask-type:alpha" maskUnits="userSpaceOnUse" x="0" y="0" width="24" height="24">
<rect id="Bounding box" width="24" height="24" fill="#D9D9D9"/>
</mask>
<g mask="url(#mask0_5_121)">
<path id="volume_up_2" d="M14 20.725V18.675C15.5 18.2417 16.7083 17.4083 17.625 16.175C18.5417 14.9417 19 13.5417 19 11.975C19 10.4083 18.5417 9.00833 17.625 7.775C16.7083 6.54167 15.5 5.70833 14 5.275V3.225C16.0667 3.69167 17.75 4.7375 19.05 6.3625C20.35 7.9875 21 9.85833 21 11.975C21 14.0917 20.35 15.9625 19.05 17.5875C17.75 19.2125 16.0667 20.2583 14 20.725ZM3 15V9H7L12 4V20L7 15H3ZM14 16V7.95C14.7833 8.31667 15.3958 8.86666 15.8375 9.6C16.2792 10.3333 16.5 11.1333 16.5 12C16.5 12.85 16.2792 13.6375 15.8375 14.3625C15.3958 15.0875 14.7833 15.6333 14 16ZM10 8.85L7.85 11H5V13H7.85L10 15.15V8.85Z" fill="white"/>
</g>
</g>
</svg>
